<svg width="24" height="28" viewBox="0 0 24 28" fill="none" xmlns="http://www.w3.org/2000/svg">
<path d="M22.7602 21.4475C22.3569 22.3791 21.8796 23.2367 21.3265 24.0252C20.5726 25.1 19.9554 25.8441 19.4797 26.2572C18.7422 26.9354 17.9521 27.2827 17.1061 27.3024C16.4987 27.3024 15.7662 27.1296 14.9136 26.779C14.0581 26.43 13.272 26.2572 12.5532 26.2572C11.7993 26.2572 10.9907 26.43 10.1259 26.779C9.25978 27.1296 8.56202 27.3123 8.02853 27.3304C7.21718 27.365 6.40848 27.0077 5.60129 26.2572C5.08608 25.8078 4.44166 25.0375 3.66963 23.9461C2.84134 22.7808 2.16041 21.4293 1.62686 19.8886C1.05556 18.2245 0.769104 16.613 0.769104 15.0529C0.769104 13.2658 1.15525 11.7245 1.92874 10.4328C2.53666 9.39529 3.34535 8.5769 4.35744 7.97607C5.36952 7.37523 6.46322 7.06909 7.64093 7.0495C8.28535 7.0495 9.13046 7.24883 10.1806 7.6406C11.2279 8.03367 11.9003 8.23305 12.195 8.23305C12.4155 8.23305 13.1624 7.99997 14.4287 7.53529C15.6262 7.10435 16.6369 6.92591 17.4648 6.99622C19.7084 7.17732 21.3939 8.06169 22.5149 9.65508C20.5084 10.8709 19.5158 12.5737 19.5356 14.7582C19.5537 16.4597 20.1709 17.8756 21.3841 18.9998C21.9338 19.5216 22.5478 19.9249 23.2309 20.2113C23.0828 20.6409 22.9264 21.0524 22.7601 21.4475H22.7602ZM17.6147 1.19951C17.6147 2.53315 17.1274 3.77836 16.1563 4.93091C14.9843 6.30107 13.5668 7.09279 12.0295 6.96789C12.0089 6.80022 11.9986 6.63145 11.9986 6.46253C11.9986 5.18221 12.5559 3.81206 13.5457 2.6918C14.0398 2.12461 14.6683 1.65294 15.4304 1.27669C16.1909 0.906068 16.9102 0.701068 17.5867 0.666016C17.6065 0.844297 17.6147 1.02258 17.6147 1.19945L17.6147 1.19951Z" fill="white"/>
</svg>
