<svg width="32" height="32" viewBox="0 0 32 32" fill="none" xmlns="http://www.w3.org/2000/svg">
<mask id="mask0" style="mask-type:alpha" maskUnits="userSpaceOnUse" x="0" y="0" width="32" height="32">
<rect width="32" height="32" fill="#C4C4C4"/>
</mask>
<g mask="url(#mask0)">
</g>
<g clip-path="url(#clip0)">
<path d="M26.7602 23.4475C26.3569 24.3791 25.8796 25.2367 25.3265 26.0252C24.5726 27.1 23.9554 27.8441 23.4797 28.2572C22.7422 28.9354 21.9521 29.2827 21.1061 29.3024C20.4987 29.3024 19.7662 29.1296 18.9136 28.779C18.0581 28.43 17.272 28.2572 16.5532 28.2572C15.7993 28.2572 14.9907 28.43 14.1259 28.779C13.2598 29.1296 12.562 29.3123 12.0285 29.3304C11.2172 29.365 10.4085 29.0077 9.60129 28.2572C9.08608 27.8078 8.44166 27.0375 7.66963 25.9461C6.84134 24.7808 6.16041 23.4293 5.62686 21.8886C5.05556 20.2245 4.7691 18.613 4.7691 17.0529C4.7691 15.2658 5.15525 13.7245 5.92874 12.4328C6.53666 11.3953 7.34535 10.5769 8.35744 9.97607C9.36952 9.37523 10.4632 9.06909 11.6409 9.0495C12.2854 9.0495 13.1305 9.24883 14.1806 9.6406C15.2279 10.0337 15.9003 10.233 16.195 10.233C16.4155 10.233 17.1624 9.99997 18.4287 9.53529C19.6262 9.10435 20.6369 8.92591 21.4648 8.99622C23.7084 9.17732 25.3939 10.0617 26.5149 11.6551C24.5084 12.8709 23.5158 14.5737 23.5356 16.7582C23.5537 18.4597 24.1709 19.8756 25.3841 20.9998C25.9338 21.5216 26.5478 21.9249 27.2309 22.2113C27.0828 22.6409 26.9264 23.0524 26.7601 23.4475H26.7602ZM21.6147 3.19951C21.6147 4.53315 21.1274 5.77836 20.1563 6.93091C18.9843 8.30107 17.5668 9.09279 16.0295 8.96789C16.0089 8.80022 15.9986 8.63145 15.9986 8.46253C15.9986 7.18221 16.5559 5.81206 17.5457 4.6918C18.0398 4.12461 18.6683 3.65294 19.4304 3.27669C20.1909 2.90607 20.9102 2.70107 21.5867 2.66602C21.6065 2.8443 21.6147 3.02258 21.6147 3.19945L21.6147 3.19951Z" fill="#14191F"/>
</g>
<defs>
<clipPath id="clip0">
<rect width="26.6667" height="26.6667" fill="white" transform="translate(2.66669 2.66602)"/>
</clipPath>
</defs>
</svg>
