<svg width="14" height="14" viewBox="0 0 14 14" fill="none" xmlns="http://www.w3.org/2000/svg">
<path d="M6.99399 0.333658C3.31296 0.337342 0.331534 3.32374 0.333986 7.00477C0.336441 10.6858 3.32184 13.6682 7.00287 13.667C10.6839 13.6658 13.6673 10.6814 13.6673 7.00033C13.6651 3.31674 10.6776 0.332189 6.99399 0.333658ZM1.66732 6.88566C1.69886 3.9515 4.09472 1.59397 7.02901 1.60966C9.9633 1.62551 12.3337 4.00867 12.3337 6.943C12.3337 9.87733 9.9633 12.2605 7.02901 12.2763C4.09472 12.292 1.69886 9.93449 1.66732 7.00033V6.88566ZM7.66732 3.667H6.33399V5.00033H7.66732V3.667ZM7.66732 6.33366H6.33399V10.3337H7.66732V6.33366Z" fill="#FFFFFE"/>
</svg>
