<svg width="54" height="54" viewBox="0 0 54 54" fill="none" xmlns="http://www.w3.org/2000/svg">
<path d="M27 0.333984C12.28 0.333984 0.333344 12.2807 0.333344 27.0007C0.333344 41.7207 12.28 53.6673 27 53.6673C41.72 53.6673 53.6667 41.7207 53.6667 27.0007C53.6667 12.2807 41.72 0.333984 27 0.333984ZM27 48.334C15.24 48.334 5.66668 38.7607 5.66668 27.0007C5.66668 15.2407 15.24 5.66732 27 5.66732C38.76 5.66732 48.3333 15.2407 48.3333 27.0007C48.3333 38.7607 38.76 48.334 27 48.334ZM12.3333 41.6673L32.36 32.3607L41.6667 12.334L21.64 21.6407L12.3333 41.6673ZM27 24.0673C28.6267 24.0673 29.9333 25.374 29.9333 27.0007C29.9333 28.6273 28.6267 29.934 27 29.934C25.3733 29.934 24.0667 28.6273 24.0667 27.0007C24.0667 25.374 25.3733 24.0673 27 24.0673Z" fill="#407BFF" fill-opacity="0.1"/>
</svg>
