<svg width="56" height="56" viewBox="0 0 56 56" fill="none" xmlns="http://www.w3.org/2000/svg">
<circle opacity="0.2" cx="28" cy="28" r="27.5" fill="#FFFFFE" stroke="#FFFFFE"/>
<path d="M21.7179 22.9739C21.7179 19.5045 24.5305 16.6919 28 16.6919C31.4694 16.6919 34.282 19.5045 34.282 22.9739C34.282 26.4434 31.4694 29.256 28 29.256C24.5305 29.256 21.7179 26.4434 21.7179 22.9739ZM28 26.7432C30.0816 26.7432 31.7692 25.0556 31.7692 22.9739C31.7692 20.8923 30.0816 19.2047 28 19.2047C25.9183 19.2047 24.2307 20.8923 24.2307 22.9739C24.2307 25.0556 25.9183 26.7432 28 26.7432Z" fill="#0E0F11"/>
<path d="M20.8926 33.4564C19.0076 35.3413 17.9487 37.8979 17.9487 40.5637H20.4615C20.4615 38.5644 21.2557 36.6469 22.6695 35.2332C24.0832 33.8195 26.0006 33.0252 28 33.0252C29.9993 33.0252 31.9167 33.8195 33.3304 35.2332C34.7442 36.6469 35.5384 38.5644 35.5384 40.5637H38.0512C38.0512 37.8979 36.9923 35.3413 35.1073 33.4564C33.2223 31.5714 30.6657 30.5124 28 30.5124C25.3342 30.5124 22.7776 31.5714 20.8926 33.4564Z" fill="#0E0F11"/>
</svg>
