<svg width="24" height="24" viewBox="0 0 24 24" fill="none" xmlns="http://www.w3.org/2000/svg">
<path d="M11.9363 7.06885C8.97334 7.06885 6.51831 9.48155 6.51831 12.4868C6.51831 15.4921 8.93101 17.9048 11.9363 17.9048C14.9416 17.9048 17.3543 15.4498 17.3543 12.4868C17.3543 9.52387 14.8993 7.06885 11.9363 7.06885ZM11.9363 15.9577C10.0315 15.9577 8.4654 14.3916 8.4654 12.4868C8.4654 10.5821 10.0315 9.01594 11.9363 9.01594C13.8411 9.01594 15.4072 10.5821 15.4072 12.4868C15.4072 14.3916 13.8411 15.9577 11.9363 15.9577Z" fill="#FFFFFE"/>
<path d="M17.5658 8.16938C18.2437 8.16938 18.7933 7.61981 18.7933 6.94187C18.7933 6.26393 18.2437 5.71436 17.5658 5.71436C16.8879 5.71436 16.3383 6.26393 16.3383 6.94187C16.3383 7.61981 16.8879 8.16938 17.5658 8.16938Z" fill="#FFFFFE"/>
<path d="M20.7405 3.76719C19.64 2.62433 18.0739 2.03174 16.2961 2.03174H7.5765C3.89396 2.03174 1.43893 4.48676 1.43893 8.1693V16.8466C1.43893 18.6667 2.03153 20.2328 3.21671 21.3757C4.35957 22.4762 5.88338 23.0264 7.61883 23.0264H16.2537C18.0739 23.0264 19.5977 22.4339 20.6982 21.3757C21.841 20.2751 22.4336 18.709 22.4336 16.8889V8.1693C22.4336 6.39153 21.841 4.86772 20.7405 3.76719ZM20.4866 16.8889C20.4866 18.2011 20.1056 19.2593 19.3437 19.9788C18.5818 20.6984 17.5236 21.0794 16.2537 21.0794H7.61883C6.34899 21.0794 5.29079 20.6984 4.52888 19.9788C3.76698 19.2169 3.38602 18.1587 3.38602 16.8466V8.1693C3.38602 6.89946 3.76698 5.84126 4.52888 5.07936C5.24846 4.35978 6.34899 3.97883 7.61883 3.97883H16.3384C17.6082 3.97883 18.6664 4.35978 19.4284 5.12169C20.1479 5.88359 20.5712 6.94179 20.5712 8.1693V16.8889H20.4866Z" fill="#FFFFFE"/>
</svg>
