<svg width="53" height="53" viewBox="0 0 53 53" fill="none" xmlns="http://www.w3.org/2000/svg">
<path d="M28.0375 6.24245C20.3319 5.51344 13.5101 11.156 12.7811 18.8616C11.7921 29.3149 24.27 46.0646 24.27 46.0646C24.27 46.0646 39.6677 31.9522 40.6566 21.4988C41.3856 13.7932 35.7431 6.97146 28.0375 6.24245ZM16.7633 19.2383C17.2832 13.7429 22.1653 9.70475 27.6607 10.2247C33.1562 10.7446 37.1943 15.6266 36.6744 21.1221C36.1319 26.8565 29.5856 34.8956 24.8577 39.8524C21.2192 34.1443 16.2265 24.913 16.7633 19.2383Z" fill="#407BFF" fill-opacity="0.1"/>
<path d="M26.2479 25.1589C28.9971 25.419 31.4366 23.4012 31.6966 20.6521C31.9567 17.9029 29.939 15.4634 27.1898 15.2034C24.4407 14.9433 22.0012 16.961 21.7411 19.7102C21.481 22.4593 23.4988 24.8988 26.2479 25.1589Z" fill="#407BFF" fill-opacity="0.1"/>
</svg>
