<svg width="27" height="29" viewBox="0 0 27 29" fill="none" xmlns="http://www.w3.org/2000/svg">
<path d="M20.0906 18.6831C23.3972 16.8657 25.9039 15.4808 26.1199 15.3731C26.8111 15.0052 27.5249 14.0313 26.1199 13.2749C25.6663 13.037 23.2241 11.6952 20.0906 9.96484L15.7468 14.3563L20.0906 18.683V18.6831Z" fill="#FFD900"/>
<path d="M15.747 14.3574L1.91577 28.3117C2.24042 28.3548 2.60694 28.2686 3.03906 28.0308C3.94628 27.5337 13.5637 22.276 20.0908 18.6853L15.747 14.3574Z" fill="#F43249"/>
<path d="M15.747 14.357L20.0908 9.98711C20.0908 9.98711 4.0119 1.20305 3.03907 0.684512C2.67255 0.467208 2.26182 0.402659 1.89429 0.467208L15.747 14.357Z" fill="#00EE76"/>
<path d="M15.7469 14.3566L1.89424 0.466797C1.33204 0.596915 0.856934 1.09414 0.856934 2.11101V26.6666C0.856934 27.5974 1.22457 28.2677 1.91574 28.3324L15.7469 14.3566Z" fill="#00D3FF"/>
</svg>
