<svg width="112" height="112" viewBox="0 0 112 112" fill="none" xmlns="http://www.w3.org/2000/svg">
<circle cx="56" cy="56" r="56" fill="#EBF8E2"/>
<g clip-path="url(#clip0)">
<path d="M24 87.9996H73.7778L56.6667 57.7773H41.1111L24 87.9996Z" fill="#A7A9AC"/>
<path d="M28.6666 87.9996H69.1111L53.5555 57.7773H44.2222L28.6666 87.9996Z" fill="#58595B"/>
<path d="M33.3334 87.9996H64.4445L50.4445 57.7773H47.3334L33.3334 87.9996Z" fill="#808285"/>
<path d="M66.6668 86.2227C66.6668 87.2058 65.8721 88.0004 64.889 88.0004H32.889C31.9077 88.0004 31.1112 87.2058 31.1112 86.2227C31.1112 85.2395 31.9077 84.4449 32.889 84.4449H64.889C65.8721 84.4449 66.6668 85.2395 66.6668 86.2227ZM63.1112 79.1115C63.1112 80.0947 62.3165 80.8893 61.3334 80.8893H36.4445C35.4632 80.8893 34.6668 80.0947 34.6668 79.1115C34.6668 78.1284 35.4632 77.3338 36.4445 77.3338H61.3334C62.3165 77.3338 63.1112 78.1284 63.1112 79.1115ZM59.5557 72.0004C59.5557 72.9835 58.761 73.7782 57.7779 73.7782H40.0001C39.0188 73.7782 38.2223 72.9835 38.2223 72.0004C38.2223 71.0173 39.0188 70.2227 40.0001 70.2227H57.7779C58.761 70.2227 59.5557 71.0173 59.5557 72.0004Z" fill="#A7A9AC"/>
<path d="M36.2601 66.3466C38.0095 68.5261 40.3312 70.2221 42.6672 70.2221H55.1117C57.4459 70.2221 59.7695 68.5244 61.5188 66.3466L57.5544 59.3457C55.4406 59.5181 52.6566 59.5555 48.8895 59.5555C45.0548 59.5555 42.2406 59.5964 40.1126 59.5413L36.2601 66.3466Z" fill="#58595B"/>
<path d="M50.6668 29.3329C50.6668 30.3142 49.8703 31.1107 48.889 31.1107C47.9077 31.1107 47.1112 30.3142 47.1112 29.3329V27.5551C47.1112 26.5738 47.9077 25.7773 48.889 25.7773C49.8703 25.7773 50.6668 26.5738 50.6668 27.5551V29.3329Z" fill="#414042"/>
<path d="M56.0001 32.8895C56.0001 34.8522 54.4072 36.4451 52.4445 36.4451H45.3334C43.3707 36.4451 41.7778 34.8522 41.7778 32.8895C41.7778 30.9269 43.3707 29.334 45.3334 29.334H52.4445C54.4072 29.334 56.0001 30.9269 56.0001 32.8895Z" fill="#6D6E71"/>
<path d="M64.8888 56.0002C64.8888 59.9273 58.823 64.8891 55.2888 64.8891H42.4888C38.9546 64.8891 32.8888 59.9273 32.8888 56.0002V38.2224C32.8888 34.2953 35.7546 31.1113 39.2888 31.1113H58.4888C62.023 31.1113 64.8888 34.2953 64.8888 38.2224V56.0002Z" fill="#D1D3D4"/>
<path d="M61.3332 52.4449C61.3332 56.372 58.1492 59.556 54.2221 59.556H43.5554C39.6283 59.556 36.4443 56.372 36.4443 52.4449V43.556C36.4443 39.6289 39.6283 38.2227 43.5554 38.2227H54.2221C58.1492 38.2227 61.3332 39.6289 61.3332 43.556V52.4449Z" fill="#808285"/>
<path d="M43.5554 50.6662H54.2221C58.1492 50.6662 61.3332 47.4822 61.3332 43.5551V41.7773H36.4443V43.5551C36.4443 47.4822 39.6283 50.6662 43.5554 50.6662Z" fill="#55ACEE"/>
<path d="M48.8888 59.556C37.6888 59.556 34.8835 56.3542 32.8888 53.7925V56.0005C32.8888 59.9276 37.6888 66.6671 42.4888 66.6671H55.2888C60.0888 66.6671 64.8888 59.9276 64.8888 56.0005V52.6387C62.8959 55.7142 60.0888 59.556 48.8888 59.556Z" fill="#5C913B"/>
<path d="M43.5555 55.112C43.5555 56.584 42.3608 57.7786 40.8888 57.7786C39.4151 57.7786 38.2222 56.584 38.2222 55.112C38.2222 53.6382 39.4151 52.4453 40.8888 52.4453C42.3608 52.4453 43.5555 53.6382 43.5555 55.112ZM59.5555 55.112C59.5555 56.584 58.3608 57.7786 56.8888 57.7786C55.4168 57.7786 54.2222 56.584 54.2222 55.112C54.2222 53.6382 55.4168 52.4453 56.8888 52.4453C58.3608 52.4453 59.5555 53.6382 59.5555 55.112Z" fill="#FFD983"/>
<path d="M61.3332 41.7771V38.2216C61.3332 36.2589 59.7403 34.666 57.7777 34.666H39.9999C38.0372 34.666 36.4443 36.2589 36.4443 38.2216V41.7771H61.3332Z" fill="#292F33"/>
<path d="M54.2223 38.2231C54.2223 39.2044 53.4277 40.0009 52.4446 40.0009H45.3334C44.3521 40.0009 43.5557 39.2044 43.5557 38.2231C43.5557 37.2418 44.3521 36.4453 45.3334 36.4453H52.4446C53.4277 36.4453 54.2223 37.2418 54.2223 38.2231Z" fill="#6D6E71"/>
<path d="M64.8888 64.7829L80.8888 88.0006H87.9999V79.1118H80.8888L64.8888 61.334V64.7829Z" fill="#58595B"/>
<path d="M87.9999 79.1118V61.334H64.8888L80.8888 79.1118H87.9999Z" fill="#A7A9AC"/>
<path d="M82.6668 66.6673C82.6668 68.4451 82.6668 68.4451 80.889 68.4451C79.1112 68.4451 79.1112 68.4451 79.1112 66.6673V47.1118C79.1112 46.1304 79.9059 45.334 80.889 45.334C81.8721 45.334 82.6668 46.1304 82.6668 47.1118V66.6673Z" fill="#6D6E71"/>
<path d="M82.6668 54.2222C82.6668 56 82.6668 56 80.889 56C79.1112 56 79.1112 56 79.1112 54.2222V41.7778C79.1112 40.7964 79.9059 40 80.889 40C81.8721 40 82.6668 40.7964 82.6668 41.7778V54.2222Z" fill="#939598"/>
<path d="M88.0001 43.5564C88.0001 45.5191 86.4072 47.112 84.4445 47.112H77.3334C75.3707 47.112 73.7778 45.5191 73.7778 43.5564V40.0009C73.7778 38.0382 75.3707 36.4453 77.3334 36.4453H84.4445C86.4072 36.4453 88.0001 38.0382 88.0001 40.0009V43.5564Z" fill="#58595B"/>
<path d="M84.4445 41.7778C84.4445 42.7591 83.6498 43.5556 82.6667 43.5556H79.1112C78.128 43.5556 77.3334 42.7591 77.3334 41.7778C77.3334 40.7964 78.128 40 79.1112 40H82.6667C83.6498 40 84.4445 40.7964 84.4445 41.7778Z" fill="#939598"/>
</g>
<defs>
<clipPath id="clip0">
<rect width="64" height="64" fill="white" transform="translate(24 24)"/>
</clipPath>
</defs>
</svg>
