<svg width="24" height="24" viewBox="0 0 24 24" fill="none" xmlns="http://www.w3.org/2000/svg">
<path d="M22.8944 6.58275C22.1275 6.9234 21.3028 7.15327 20.4369 7.2564C21.3206 6.72723 21.9988 5.88882 22.3183 4.88921C21.4915 5.37972 20.5762 5.73587 19.6014 5.9279C18.8211 5.09634 17.709 4.57666 16.4785 4.57666C14.1156 4.57666 12.1999 6.49241 12.1999 8.85528C12.1999 9.19056 12.2377 9.51695 12.3107 9.83009C8.75476 9.65191 5.60187 7.94867 3.49164 5.35987C3.12347 5.99156 2.91243 6.72643 2.91243 7.51086C2.91243 8.99519 3.66774 10.3047 4.81578 11.0722C4.11461 11.0497 3.4546 10.8574 2.87789 10.5368C2.87751 10.5546 2.87751 10.5726 2.87751 10.591C2.87751 12.6636 4.35236 14.3929 6.30985 14.7863C5.95078 14.8838 5.57274 14.9363 5.18247 14.9363C4.9065 14.9363 4.63862 14.9097 4.37733 14.8595C4.92204 16.5592 6.50208 17.7963 8.37402 17.8308C6.90971 18.9785 5.06504 19.6625 3.06022 19.6625C2.71503 19.6625 2.37459 19.642 2.03973 19.6027C3.93356 20.8169 6.1823 21.5251 8.59847 21.5251C16.4686 21.5251 20.7718 15.0054 20.7718 9.35134C20.7718 9.16614 20.7681 8.98114 20.7598 8.79779C21.5955 8.19463 22.3212 7.44101 22.8944 6.58275Z" fill="#FFFFFE"/>
</svg>
