<svg width="20" height="25" viewBox="0 0 20 25" fill="none" xmlns="http://www.w3.org/2000/svg">
<path d="M9.99935 25.0001C8.31526 23.5636 6.75427 21.9888 5.33268 20.2921C3.19935 17.7441 0.666017 13.9494 0.666017 10.3334C0.664126 6.5568 2.93835 3.15125 6.42744 1.70593C9.91654 0.260606 13.9328 1.06039 16.602 3.73207C18.3573 5.47954 19.3406 7.85659 19.3327 10.3334C19.3327 13.9494 16.7994 17.7441 14.666 20.2921C13.2444 21.9888 11.6834 23.5636 9.99935 25.0001ZM9.99935 3.66673C6.31928 3.67114 3.33709 6.65333 3.33268 10.3334C3.33268 11.8881 4.03535 14.5801 7.37935 18.5814C8.20354 19.5655 9.07804 20.5063 9.99935 21.4001C10.9207 20.5073 11.7957 19.5679 12.6207 18.5854C15.9634 14.5787 16.666 11.8867 16.666 10.3334C16.6616 6.65333 13.6794 3.67114 9.99935 3.66673ZM9.99935 14.3334C7.79021 14.3334 5.99935 12.5425 5.99935 10.3334C5.99935 8.12426 7.79021 6.3334 9.99935 6.3334C12.2085 6.3334 13.9994 8.12426 13.9994 10.3334C13.9994 11.3943 13.5779 12.4117 12.8278 13.1618C12.0776 13.912 11.0602 14.3334 9.99935 14.3334Z" fill="#FFFFFE"/>
</svg>
