<svg width="24" height="24" viewBox="0 0 24 24" fill="none" xmlns="http://www.w3.org/2000/svg">
<path d="M12 24C5.37258 24 0 18.6274 0 12C0 5.37258 5.37258 0 12 0C18.6274 0 24 5.37258 24 12C23.9924 18.6243 18.6243 23.9924 12 24ZM12 3.42857C7.26613 3.42857 3.42857 7.26613 3.42857 12C3.42857 16.7339 7.26613 20.5714 12 20.5714C16.7339 20.5714 20.5714 16.7339 20.5714 12C20.5714 7.26613 16.7339 3.42857 12 3.42857ZM12 17.1429C9.15968 17.1429 6.85714 14.8403 6.85714 12C6.85714 9.15968 9.15968 6.85714 12 6.85714C14.8403 6.85714 17.1429 9.15968 17.1429 12C17.1429 13.364 16.601 14.6721 15.6365 15.6365C14.6721 16.601 13.364 17.1429 12 17.1429Z" fill="#2962FF"/>
</svg>
