<svg width="492" height="332" viewBox="0 0 492 332" fill="none" xmlns="http://www.w3.org/2000/svg">
<path opacity="0.2" d="M9.26054 331.836H324.176C325.859 331.825 327.508 331.351 328.942 330.464C330.375 329.577 331.539 328.313 332.305 326.808C333.072 325.304 333.412 323.617 333.288 321.932C333.165 320.246 332.583 318.627 331.606 317.251L174.067 63.0443C173.231 61.8182 172.11 60.8153 170.8 60.1222C169.491 59.4291 168.033 59.0669 166.553 59.0669C165.073 59.0669 163.615 59.4291 162.306 60.1222C160.996 60.8153 159.875 61.8182 159.039 63.0443L1.65075 317.251C0.687354 318.645 0.122625 320.277 0.0178153 321.97C-0.0869945 323.663 0.272126 325.353 1.05621 326.855C1.84029 328.358 3.01941 329.617 4.46569 330.495C5.91197 331.373 7.5702 331.836 9.26054 331.836ZM329.788 235.721L387.58 328.024C388.398 329.248 389.504 330.25 390.8 330.944C392.096 331.637 393.542 332 395.01 332H482.862C484.546 331.989 486.195 331.515 487.628 330.628C489.062 329.741 490.225 328.477 490.992 326.972C491.758 325.468 492.099 323.781 491.975 322.096C491.852 320.41 491.27 318.792 490.293 317.415L388.57 172.084C387.735 170.858 386.613 169.855 385.304 169.162C383.995 168.469 382.537 168.107 381.057 168.107C379.576 168.107 378.118 168.469 376.809 169.162C375.5 169.855 374.379 170.858 373.543 172.084L329.628 225.279C328.642 226.847 328.132 228.67 328.161 230.524C328.189 232.378 328.755 234.184 329.788 235.721ZM403.107 92.5416C411.804 91.648 420.069 88.2983 426.945 82.8811C433.821 77.4639 439.026 70.2013 441.955 61.9359C444.884 53.6704 445.418 44.7409 443.495 36.1833C441.571 27.6257 437.269 19.7909 431.087 13.5877C424.906 7.38457 417.098 3.0674 408.571 1.13705C400.043 -0.793294 391.145 -0.257671 382.908 2.68177C374.672 5.62121 367.434 10.844 362.036 17.7442C356.638 24.6443 353.3 32.9391 352.409 41.666C351.741 48.5138 352.593 55.4251 354.905 61.9028C357.217 68.3805 360.93 74.2635 365.778 79.1288C370.627 83.9941 376.489 87.7206 382.944 90.0404C389.399 92.3601 396.286 93.2154 403.11 92.5447L403.107 92.5416Z" fill="#FFFFFE"/>
</svg>
