<svg width="24" height="24" viewBox="0 0 24 24" fill="none" xmlns="http://www.w3.org/2000/svg">
<path d="M12.7298 11.4725V11.4399C12.723 11.4509 12.7158 11.462 12.7086 11.4725H12.7298Z" fill="#FFFFFE"/>
<path d="M20.8554 1.97559H3.02462C2.17118 1.97559 1.47903 2.65122 1.47903 3.48392V21.5234C1.47903 22.3557 2.17118 23.0313 3.02462 23.0313H20.8554C21.7101 23.0313 22.4023 22.3552 22.4023 21.5234V3.48392C22.4023 2.6508 21.7097 1.97559 20.8554 1.97559ZM7.82098 19.6019H4.6608V10.0943H7.82098V19.6019ZM6.2411 8.79548H6.21994C5.15991 8.79548 4.47411 8.06523 4.47411 7.15294C4.47411 6.22034 5.18108 5.51041 6.26185 5.51041C7.34304 5.51041 8.00809 6.22034 8.02926 7.15294C8.02926 8.06523 7.34262 8.79548 6.2411 8.79548ZM19.2167 19.6019H16.0565V14.5143C16.0565 13.2367 15.5993 12.3646 14.4559 12.3646C13.583 12.3646 13.0631 12.9526 12.8341 13.5207C12.7507 13.7235 12.7304 14.0071 12.7304 14.2916V19.6015H9.57019C9.57019 19.6015 9.61168 10.985 9.57019 10.0938H12.7304V11.4396C13.1503 10.7919 13.9013 9.86947 15.579 9.86947C17.658 9.86947 19.2171 11.2288 19.2171 14.1494L19.2167 19.6019Z" fill="#FFFFFE"/>
</svg>
