<svg width="24" height="24" viewBox="0 0 24 24" fill="none" xmlns="http://www.w3.org/2000/svg">
<path d="M7.65619 7.57585C6.22535 8.79165 5.70101 11.0089 6.9365 12.7878C8.09265 14.4523 9.549 15.9084 11.2132 17.064C12.9921 18.2993 15.2093 17.7748 16.4249 16.3439L16.4385 16.3501C17.9913 17.0694 19.6405 17.5625 21.3333 17.8137V21.3333L21.3319 21.3333L21.3281 21.3333C10.6954 21.3484 2.6553 13.2148 2.66668 2.67145V2.66667H6.18582L6.18606 2.66823C6.43733 4.36087 6.93014 6.00872 7.64951 7.56144L7.65619 7.57585ZM21.3319 24H22.6667C23.403 24 24 23.403 24 22.6666V16.6636C24 16.0028 23.516 15.4417 22.8624 15.3447L21.7235 15.1757C20.283 14.9619 18.8807 14.5426 17.5593 13.9305L16.5555 13.4655C15.9738 13.196 15.2827 13.3787 14.9101 13.9003L14.4557 14.5366C14.0574 15.0942 13.297 15.2645 12.7342 14.8736C11.3311 13.8994 10.1014 12.6699 9.1267 11.2665C8.73575 10.7037 8.90607 9.94316 9.46378 9.54489L10.0997 9.09076C10.6215 8.71815 10.8041 8.02695 10.5346 7.4452L10.0691 6.44044C9.45699 5.1192 9.03764 3.71699 8.82382 2.27665L8.65472 1.13755C8.55769 0.483946 7.9966 0 7.33584 0H1.33335C0.596967 0 1.36349e-05 0.596954 1.36349e-05 1.33333V2.66857C-0.0129458 14.6772 9.21364 24.0172 21.3319 24Z" fill="#FFFFFE"/>
</svg>
