<svg width="112" height="112" viewBox="0 0 112 112" fill="none" xmlns="http://www.w3.org/2000/svg">
<circle cx="56" cy="56" r="56" fill="#FFF0DB"/>
<g clip-path="url(#clip0)">
<path d="M61.3334 48.8891C61.7832 55.8047 67.593 61.2784 74.6668 61.2784C81.7406 61.2784 87.5503 55.8047 88.0001 48.8891V31.1113H61.3334V48.8891Z" fill="#FFDC5D"/>
<path d="M88 62.6702V48.8889C87.5502 55.8044 81.7405 61.2782 74.6667 61.2782C67.5929 61.2782 61.7831 55.8044 61.3334 48.8889V41.1787C70.8054 40.9031 76.4622 37.0133 79.5325 33.7458C80.2702 36.368 82.3129 40 88 40V27.3778C86.3449 26.1529 84.24 25.4347 81.8454 25.4347C81.2534 25.4347 80.6774 25.4951 80.1138 25.5947C78.032 24.5831 76.2489 24 73.7778 24C65.0542 24 57.7778 31.2764 57.7778 40V52.4444C57.8916 56.4587 59.3209 60.1778 61.6569 63.1111L66.6667 66.6667H82.6667L87.6765 63.1111C87.7902 62.9689 87.8916 62.816 88 62.6702Z" fill="#FFAC33"/>
<path d="M87.6764 63.1113H61.3333C57.7778 63.1113 56 64.8891 56 68.3967V88.0002H88V63.1113H87.6764Z" fill="#9268CA"/>
<path d="M61.3087 70.2227H63.1363V88.0004H61.3087V70.2227Z" fill="#7450A8"/>
<path d="M70.2222 57.7773V63.1107C70.2222 65.5658 72.2115 67.5551 74.6666 67.5551C77.1218 67.5551 79.1111 65.5658 79.1111 63.1107V57.7773H70.2222Z" fill="#FFDC5D"/>
<path d="M68.9239 55.5898H80.4084C80.4084 55.5898 78.9719 58.4627 74.6661 58.4627C70.3604 58.4627 68.9239 55.5898 68.9239 55.5898Z" fill="#DA2F47"/>
<path d="M75.5554 51.5551H73.7777C73.287 51.5551 72.8888 51.1569 72.8888 50.6662C72.8888 50.1756 73.287 49.7773 73.7777 49.7773H75.5554C76.0461 49.7773 76.4443 50.1756 76.4443 50.6662C76.4443 51.1569 76.0461 51.5551 75.5554 51.5551Z" fill="#BF6952"/>
<path d="M68.4443 47.1107C67.4612 47.1107 66.6666 46.3142 66.6666 45.3329V43.5551C66.6666 42.5738 67.4612 41.7773 68.4443 41.7773C69.4275 41.7773 70.2221 42.5738 70.2221 43.5551V45.3329C70.2221 46.3142 69.4275 47.1107 68.4443 47.1107ZM80.8888 47.1107C79.9057 47.1107 79.111 46.3142 79.111 45.3329V43.5551C79.111 42.5738 79.9057 41.7773 80.8888 41.7773C81.8719 41.7773 82.6666 42.5738 82.6666 43.5551V45.3329C82.6666 46.3142 81.8719 47.1107 80.8888 47.1107Z" fill="#662113"/>
<path d="M24 48.8891C24.4498 55.8047 30.2596 61.2784 37.3333 61.2784C44.4071 61.2784 50.2169 55.8047 50.6667 48.8891V31.1113H24V48.8891Z" fill="#FFDC5D"/>
<path d="M54.2222 52.4444V34.6667C54.2222 29.1164 50.064 25.4364 44.512 25.4364C43.92 25.4364 43.344 25.4969 42.7804 25.5964C40.6987 24.5831 38.9156 24 36.4444 24C31.4578 24 26.9529 26.3822 24 30.048V41.1787C33.472 40.9031 39.1289 37.0133 42.1991 33.7458C42.9369 36.368 44.9796 40 50.6667 40V48.8889C50.2169 55.8044 44.4071 61.2782 37.3333 61.2782C30.2596 61.2782 24.4498 55.8044 24 48.8889V62.6702C24.1084 62.816 24.2098 62.9689 24.3236 63.1111L29.3333 66.6667H45.3333L50.3431 63.1111C52.6791 60.1778 54.1084 56.4587 54.2222 52.4444Z" fill="#FFAC33"/>
<path d="M50.6667 63.1113H24V88.0002H56V68.3967C56 64.8891 54.2222 63.1113 50.6667 63.1113Z" fill="#9266CC"/>
<path d="M48.8643 70.2227H50.6919V88.0004H48.8643V70.2227Z" fill="#7450A8"/>
<path d="M32.8888 57.7773V63.1107C32.8888 65.5658 34.8781 67.5551 37.3332 67.5551C39.7883 67.5551 41.7777 65.5658 41.7777 63.1107V57.7773H32.8888Z" fill="#FFDC5D"/>
<path d="M31.5889 55.5898H43.0769C43.0769 55.5898 41.6405 58.4627 37.3329 58.4627C33.0253 58.4627 31.5889 55.5898 31.5889 55.5898Z" fill="#DA2F47"/>
<path d="M38.2223 51.5551H36.4445C35.9538 51.5551 35.5556 51.1569 35.5556 50.6662C35.5556 50.1756 35.9538 49.7773 36.4445 49.7773H38.2223C38.7129 49.7773 39.1112 50.1756 39.1112 50.6662C39.1112 51.1569 38.7129 51.5551 38.2223 51.5551Z" fill="#BF6952"/>
<path d="M31.1112 47.1107C30.1281 47.1107 29.3334 46.3142 29.3334 45.3329V43.5551C29.3334 42.5738 30.1281 41.7773 31.1112 41.7773C32.0943 41.7773 32.889 42.5738 32.889 43.5551V45.3329C32.889 46.3142 32.0943 47.1107 31.1112 47.1107ZM43.5557 47.1107C42.5725 47.1107 41.7779 46.3142 41.7779 45.3329V43.5551C41.7779 42.5738 42.5725 41.7773 43.5557 41.7773C44.5388 41.7773 45.3334 42.5738 45.3334 43.5551V45.3329C45.3334 46.3142 44.5388 47.1107 43.5557 47.1107Z" fill="#662113"/>
<path d="M75.552 84.4447V79.1113H68.4409V84.4447H66.6631V88.0002H77.3298V84.4447H75.552Z" fill="#FFDC5D"/>
<path d="M68.4404 82.666H64.8849C60.4529 82.666 57.2831 85.1282 56.3267 87.9993H87.6724C86.7533 85.1513 83.8342 82.666 80.8849 82.666H75.5515L74.7231 83.4945L71.996 86.2216L68.4404 82.666Z" fill="#88C9F9"/>
<path d="M82.6544 72.0716L82.6508 72.0005H82.6633V64.381L75.0437 62.8574L61.3299 64.381V72.0005H61.3335L61.3299 72.0716C61.3299 73.2165 61.5184 74.317 61.8562 75.3499C63.2464 79.5952 67.257 82.6672 71.993 82.6672C76.7201 82.6672 80.7237 79.6059 82.121 75.373C82.4624 74.333 82.6544 73.2254 82.6544 72.0716Z" fill="#FFDC5D"/>
<path d="M84.441 68.6662C84.441 62.652 79.5663 57.7773 73.5521 57.7773C73.0223 57.7773 72.5068 57.8289 71.9966 57.9018C71.4881 57.8289 70.9708 57.7773 70.441 57.7773C64.4268 57.7773 59.5521 62.652 59.5521 68.6662C59.5521 71.1871 60.4179 73.5036 61.8561 75.3489C61.5183 74.316 61.3299 73.2156 61.3299 72.0707L61.3335 71.9996H61.3299V68.6022C68.7468 68.2805 73.0419 65.772 75.4259 63.4289C77.0437 65.3382 79.6055 67.7205 82.6632 68.4351V71.9996H82.6508L82.6543 72.0707C82.6543 73.2245 82.4623 74.332 82.1192 75.372C83.5699 73.5231 84.441 71.1978 84.441 68.6662Z" fill="#F4900C"/>
<path d="M75.552 77.3325H68.4409C68.4409 77.3325 69.1324 79.7023 71.9964 79.7023C74.8604 79.7023 75.552 77.3325 75.552 77.3325ZM71.9964 76.4436C71.7653 76.4436 71.5342 76.3547 71.3742 76.1769C71.1964 76.0169 71.1076 75.7858 71.1076 75.5547C71.1076 75.3236 71.1964 75.0925 71.3742 74.9147C71.6764 74.6125 72.2987 74.5947 72.6364 74.9325C72.7964 75.0943 72.8853 75.3254 72.8853 75.5565C72.8853 75.7876 72.7964 76.0187 72.6187 76.1787C72.4587 76.3547 72.2276 76.4436 71.9964 76.4436Z" fill="#BF6952"/>
<path d="M75.552 73.7786C74.7324 73.7786 74.0711 73.1155 74.0711 72.2977V70.8168C74.0711 69.9973 74.7342 69.3359 75.552 69.3359C76.3715 69.3359 77.0328 69.999 77.0328 70.8168V72.2977C77.0346 73.1155 76.3715 73.7786 75.552 73.7786ZM68.4408 73.7786C67.6213 73.7786 66.96 73.1155 66.96 72.2977V70.8168C66.96 69.9973 67.6231 69.3359 68.4408 69.3359C69.2604 69.3359 69.9217 69.999 69.9217 70.8168V72.2977C69.9235 73.1155 69.2604 73.7786 68.4408 73.7786Z" fill="#662113"/>
<path d="M43.552 84.4447V79.1113H36.4409V84.4447H34.6631V88.0002H45.3298V84.4447H43.552Z" fill="#FFDC5D"/>
<path d="M36.4405 82.666H32.8849C28.4529 82.666 25.2831 85.1282 24.3267 87.9993H55.6725C54.7534 85.1513 51.8342 82.666 48.8849 82.666H43.5516L42.7231 83.4945L39.996 86.2216L36.4405 82.666Z" fill="#88C9F9"/>
<path d="M50.6544 72.0716L50.6508 72.0005H50.6633V64.381L43.0437 62.8574L29.3299 64.381V72.0005H29.3335L29.3299 72.0716C29.3299 73.2165 29.5184 74.317 29.8561 75.3499C31.2464 79.5952 35.257 82.6672 39.993 82.6672C44.7201 82.6672 48.7237 79.6059 50.121 75.373C50.4624 74.333 50.6544 73.2254 50.6544 72.0716Z" fill="#FFDC5D"/>
<path d="M52.441 68.6662C52.441 62.652 47.5663 57.7773 41.5521 57.7773C41.0223 57.7773 40.5068 57.8289 39.9966 57.9018C39.4881 57.8289 38.9708 57.7773 38.441 57.7773C32.4268 57.7773 27.5521 62.652 27.5521 68.6662C27.5521 71.1871 28.4179 73.5036 29.8561 75.3489C29.5183 74.316 29.3299 73.2156 29.3299 72.0707L29.3335 71.9996H29.3299V68.6022C36.7468 68.2805 41.0419 65.772 43.4259 63.4289C45.0437 65.3382 47.6055 67.7205 50.6632 68.4351V71.9996H50.6508L50.6543 72.0707C50.6543 73.2245 50.4623 74.332 50.1192 75.372C51.5699 73.5231 52.441 71.1978 52.441 68.6662Z" fill="#F4900C"/>
<path d="M43.552 77.3325H36.4409C36.4409 77.3325 37.1324 79.7023 39.9964 79.7023C42.8604 79.7023 43.552 77.3325 43.552 77.3325ZM39.9964 76.4436C39.7653 76.4436 39.5342 76.3547 39.3742 76.1769C39.1964 76.0169 39.1076 75.7858 39.1076 75.5547C39.1076 75.3236 39.1964 75.0925 39.3742 74.9147C39.6764 74.6125 40.2987 74.5947 40.6364 74.9325C40.7964 75.0943 40.8853 75.3254 40.8853 75.5565C40.8853 75.7876 40.7964 76.0187 40.6187 76.1787C40.4587 76.3547 40.2276 76.4436 39.9964 76.4436Z" fill="#BF6952"/>
<path d="M43.552 73.7786C42.7324 73.7786 42.0711 73.1155 42.0711 72.2977V70.8168C42.0711 69.9973 42.7342 69.3359 43.552 69.3359C44.3715 69.3359 45.0329 69.999 45.0329 70.8168V72.2977C45.0346 73.1155 44.3715 73.7786 43.552 73.7786ZM36.4409 73.7786C35.6213 73.7786 34.96 73.1155 34.96 72.2977V70.8168C34.96 69.9973 35.6231 69.3359 36.4409 69.3359C37.2604 69.3359 37.9217 69.999 37.9217 70.8168V72.2977C37.9235 73.1155 37.2604 73.7786 36.4409 73.7786Z" fill="#662113"/>
</g>
<defs>
<clipPath id="clip0">
<rect width="64" height="64" fill="white" transform="translate(24 24)"/>
</clipPath>
</defs>
</svg>
