<svg width="112" height="112" viewBox="0 0 112 112" fill="none" xmlns="http://www.w3.org/2000/svg">
<circle cx="56" cy="56" r="56" fill="#DDF0FD"/>
<path d="M45.3333 37.5243L29.3333 33.2381C26.3876 32.4488 24 34.1963 24 37.1439V72.6994C24 75.6434 26.3876 78.671 29.3333 79.4621L45.3333 83.7483V37.5243ZM66.6667 78.0328L82.6667 82.319C85.6107 83.1065 88 81.359 88 78.415V42.8594C88 39.9137 85.6107 36.8861 82.6667 36.0968L66.6667 31.8105V78.0328Z" fill="#CCD6DD"/>
<path d="M66.6668 78.0308L45.3334 83.7464V37.5241L66.6668 31.8086V78.0308Z" fill="#E1E8ED"/>
<path d="M45.3334 41.0787L31.1112 37.2671C29.1485 36.7409 27.5556 37.9071 27.5556 39.8698V71.8698C27.5556 73.8324 29.1485 75.852 31.1112 76.3764L45.3334 80.1898V41.0787ZM80.8889 39.1729L66.6667 35.3613V74.4724L80.8889 78.284C82.8516 78.8102 84.4445 77.6458 84.4445 75.6795V43.6795C84.4445 41.7187 82.8516 39.6991 80.8889 39.1729Z" fill="#55ACEE"/>
<path d="M66.6668 74.4744L45.3334 80.1899V41.0788L66.6668 35.3633V74.4744Z" fill="#88C9F9"/>
<path d="M45.3333 62.2321C44.8568 62.2427 44.2755 62.417 43.831 62.4898C43.0559 62.6196 43.2462 63.409 43.0079 63.2774C42.7679 63.1458 42.1635 62.8063 41.5644 62.1076C40.9653 61.4072 42.0088 61.2596 42.3075 61.0018C42.6062 60.7441 41.7457 60.6961 41.4453 60.4116C41.1448 60.129 40.6079 60.5965 40.1315 59.921C39.6515 59.2525 39.9519 58.5165 39.895 57.8232C39.8346 57.1298 40.6702 57.217 41.2088 57.2294C41.7475 57.2347 42.1653 57.4854 42.1653 58.2996C42.1653 59.1103 42.823 59.5583 42.6435 58.5592C42.4639 57.5618 42.823 57.3912 43.0613 56.977C43.2995 56.5681 43.719 55.9992 44.2559 55.1281C44.6488 54.4916 44.9475 54.625 45.3333 54.8365V48.8898C45.2355 48.8116 45.1377 48.7298 45.0399 48.689C44.5013 48.4543 45.2106 50.0276 44.7928 50.6605C44.3715 51.2934 43.7297 51.0036 43.0684 50.8276C42.4124 50.6516 41.8008 49.8587 42.2808 49.0374C42.7573 48.2161 43.671 48.561 44.1493 47.8765C44.6275 47.1921 42.4479 46.6818 41.671 46.2036C40.8924 45.7218 39.959 45.4765 39.1822 45.9441C38.4053 46.4134 36.7413 46.1805 36.0835 46.2747C35.4257 46.3707 35.3084 45.6187 35.1893 45.0427C35.0702 44.4703 34.0284 44.4578 32.9546 44.4418C31.8773 44.4241 29.8595 44.9414 30.2044 47.569C30.3253 48.4827 31.2799 47.7894 31.4613 47.633C31.6408 47.4765 32.5368 47.9885 32.6542 48.7654C32.775 49.5458 32.7164 50.3423 32.4782 50.9556C32.2346 51.569 33.0755 52.7441 33.5519 53.8214C34.0302 54.897 34.5706 55.041 34.8088 55.1067C35.0488 55.1707 36.423 56.1503 36.3644 56.8774C36.3057 57.6081 37.6195 58.6392 38.1582 59.2596C38.6968 59.8818 39.0364 60.4365 39.735 60.7636C40.4337 61.089 41.2497 62.6036 41.6088 62.8347C41.8844 63.0125 42.3519 63.6365 42.6328 63.8658C42.263 64.2961 41.5448 65.1956 41.5448 65.6952C41.5448 66.3761 42.327 67.6561 42.6257 68.0063C42.9226 68.3547 43.7813 68.7921 43.9608 69.5174C44.1404 70.241 43.8364 72.4436 43.2995 72.9076C42.759 73.3734 42.5635 74.7618 42.5635 74.7618C42.5635 74.7618 42.7537 75.2827 43.3902 74.9823C43.9395 74.7263 44.7697 73.9761 45.335 73.5583V62.2321H45.3333Z" fill="#5C913B"/>
<path d="M45.8099 54.9573C45.6321 54.9857 45.4774 54.9786 45.3334 54.9769V49.0302C45.785 49.1457 46.2437 49.5937 46.5903 50.3386C47.0063 51.2435 47.6641 50.456 47.9041 51.0035C48.1423 51.5511 49.4597 52.3511 48.8019 52.3226C48.1423 52.296 47.4845 52.3369 47.3068 53.1297C47.1254 53.9262 47.6054 54.5413 47.1254 54.6017C46.6454 54.6604 46.4677 54.8542 45.8099 54.9573ZM50.4143 64.8382C49.6392 64.7066 49.7761 64.7973 49.2979 63.7733C48.8214 62.7475 48.5317 62.4524 47.4561 62.6071C46.3805 62.7617 46.4197 62.8489 46.121 62.3173C45.993 62.0897 45.6925 62.1715 45.3334 62.3724V73.6969C45.4934 73.4942 45.6357 73.3218 45.7388 73.2222C46.6365 72.3742 47.5094 71.3982 48.345 70.296C49.1805 69.192 48.8783 68.6533 49.2961 67.6631C49.7157 66.6711 50.2579 66.5662 50.9743 65.6275C51.6943 64.6853 51.1912 64.9733 50.4143 64.8382ZM66.6668 51.9671V40.7422C66.5957 40.7493 66.5459 40.7635 66.4712 40.7689C66.0997 40.7884 65.6143 41.0089 65.0863 41.3377C65.0437 41.3289 65.0045 41.3093 64.9619 41.3004C63.369 40.9893 62.6294 43.4426 61.337 43.3484C60.041 43.2542 58.3148 42.7369 57.1912 44.2622C56.0694 45.7857 55.8099 46.9822 57.1912 46.5626C58.5725 46.1431 59.5237 44.0293 60.2134 44.6266C60.9032 45.224 60.729 45.9084 59.0899 46.5911C57.4508 47.2755 55.6801 48.0435 54.7308 48.2977C53.7814 48.552 53.5663 49.2471 54.2117 49.7591C54.8588 50.2711 53.8223 50.5964 52.7432 51.5724C51.6641 52.5449 53.0028 52.4826 53.9094 52.8257C54.8161 53.1689 55.5059 52.2515 55.8952 51.1689C56.281 50.088 57.9539 48.4649 58.6508 48.424C59.3477 48.3831 59.3477 48.7742 59.2161 49.4942C59.193 49.6204 59.2179 49.6773 59.2357 49.7395C58.9334 50.6995 58.6845 51.5706 58.5868 52.0613C58.5405 52.3013 58.5317 52.6853 58.5388 53.1191C58.3859 53.1262 58.2134 53.1564 58.0979 53.1209C57.3192 52.8915 55.5485 52.7297 55.0739 53.1973C54.5992 53.6684 54.3414 54.0897 53.7797 54.4826C53.2161 54.872 50.9299 56.6586 50.8872 58.1875C50.8428 59.7146 50.8001 61.4409 51.7068 61.2471C52.6134 61.0533 54.8161 59.7786 55.5059 58.9573C56.1939 58.1342 57.1432 58.0293 57.4472 58.68C57.7494 59.336 57.5325 59.8337 57.2339 61.0871C56.9299 62.3457 57.4294 62.7991 57.9112 63.6969C58.3965 64.5929 58.7841 65.0746 58.7841 65.8106C58.7841 66.5431 59.4757 67.096 60.5085 65.592C60.8428 65.112 61.161 64.5146 61.4614 63.8906C62.1885 63.0569 62.8268 62.2497 62.809 61.9422C62.7805 61.4426 62.7717 61.1706 62.7663 60.8329L62.9281 60.4417C63.1539 59.9209 63.3565 59.1155 63.5717 58.3884C63.5841 58.3706 63.5948 58.3582 63.6072 58.3457C64.0285 57.7466 63.9361 57.7182 64.6383 57.0017C65.1077 56.5217 65.0899 56.0915 65.0188 55.7964C65.2054 55.4853 65.257 55.2986 64.9601 55.3786L64.9317 55.3857C64.9281 55.3857 64.9228 55.4195 64.921 55.4106C64.8801 55.1457 64.5548 55.416 64.0303 55.6737C63.5254 55.688 63.0241 55.5564 62.8428 55.0195C62.6063 54.3155 61.7725 53.2489 61.7068 52.6444C61.7121 52.5715 61.7157 52.5075 61.7245 52.424C61.7494 52.36 61.7832 52.3066 61.8472 52.2675C61.9148 52.2284 61.9805 52.2142 62.0463 52.2053C62.1192 52.4026 62.1797 52.7013 62.1992 53.0302C62.2454 53.8782 62.8997 53.3786 62.8997 53.9155C62.8997 54.4542 63.8419 54.7902 64.0748 54.8897C64.1405 54.9182 64.2419 54.8417 64.3574 54.7155C64.4125 54.7351 64.4641 54.7742 64.5228 54.7813C65.0419 54.8364 66.1619 53.032 66.5085 52.712C66.6899 52.5431 66.6934 52.2337 66.5672 52.0115L66.6668 51.9671Z" fill="#77B255"/>
<path d="M73.127 59.9491C73.0328 60.7313 73.4541 60.3065 74.2043 61.2025C74.9563 62.1056 74.0195 61.9029 73.6906 61.7642C73.3617 61.622 73.0328 61.5313 72.6612 60.8433C72.2826 60.1482 72.6612 59.6078 72.6612 59.0176C72.6612 59.0176 73.223 59.1669 73.127 59.9491ZM73.7706 58.3473C74.4621 58.6425 73.9732 57.4905 74.2043 56.8522C74.439 56.2193 74.7661 56.198 75.191 56.2069C75.6106 56.2105 75.9412 55.8673 76.2239 55.5153C76.503 55.1616 77.0203 54.7082 76.9741 54.2122C76.9279 53.7162 76.7892 53.3553 76.5972 52.7136C76.4106 52.0736 77.159 52.0593 77.4897 51.4496C77.8168 50.8398 77.4897 51.4496 78.2381 51.4353C78.9883 51.4211 78.6612 51.3322 78.7999 51.0478C78.9421 50.7651 79.0363 50.4665 78.8959 49.8389C78.7572 49.2113 78.2381 49.6611 77.7226 49.5242C77.2088 49.3873 77.911 48.7687 77.9572 48.1376C78.0035 47.5047 78.663 47.8442 79.1323 47.9153C79.5999 47.9847 79.7403 48.7758 79.8808 48.9767C80.0248 49.1758 81.4719 48.3278 81.8506 47.8371C82.2257 47.3482 81.5199 47.3198 81.7101 47.1207C81.8986 46.9233 80.5866 46.5216 80.0657 46.2869C79.5519 46.0505 78.2381 45.6345 77.7226 45.1331C77.2088 44.63 75.2408 44.3758 74.7217 44.534C74.2043 44.6869 73.8755 44.2798 73.6443 43.8122C73.4115 43.3465 72.4248 43.2842 72.1439 42.982C71.863 42.6798 71.5821 43.2078 71.2035 43.2665C70.8301 43.3287 70.6897 43.3429 70.2186 42.8949C69.751 42.4469 70.3608 42.2353 69.7066 41.7909C69.0755 41.3678 68.2612 41.4673 66.6666 40.7402V51.9651C66.9457 51.99 67.2159 52.0291 67.3137 52.0558C67.5466 52.118 68.1101 53.0745 68.1101 53.4496C68.1101 53.8247 68.391 54.9216 68.6275 55.574C68.8603 56.2247 69.3741 56.4736 69.847 57.0282C70.3163 57.5829 70.5475 57.2718 70.5475 57.2718C70.5475 57.2718 70.3608 56.3047 70.3608 55.5562C70.3608 54.8025 70.9226 54.31 70.9226 54.31C70.9226 54.31 71.8115 55.302 71.8612 55.5278C71.9075 55.7553 72.6097 56.694 72.6595 57.0851C72.7057 57.4745 73.0808 58.0558 73.7706 58.3473ZM77.4897 54.6709C77.8168 54.8131 79.2248 54.9749 78.4746 54.0771C77.7226 53.1776 78.2861 53.5456 78.3803 52.7651C78.4746 51.9829 77.911 51.8336 77.911 51.8336C77.911 52.4238 77.5359 52.9678 77.911 53.6576C78.2843 54.3509 77.159 54.5287 77.4897 54.6709ZM81.0523 64.2193C80.8195 63.8336 80.3039 63.5349 79.7403 63.3998C79.1803 63.2647 79.2248 62.5465 78.663 62.4522C78.1012 62.3545 77.6959 61.7607 77.4435 61.542C76.8888 61.0691 77.255 61.9136 77.4435 62.7847C77.6319 63.6522 78.3341 63.222 78.9883 63.8265C79.6443 64.4309 79.6941 63.8549 80.3039 64.2336C80.9119 64.6087 81.1483 65.158 81.7332 65.2611C82.3181 65.366 81.2888 64.6051 81.0523 64.2193ZM75.5626 61.6736C76.0283 62.3882 75.8452 61.75 76.4586 61.6451C77.0683 61.5402 75.9412 60.6478 75.5661 60.2247C75.191 59.8016 74.8195 59.6896 74.4906 60.3118C74.1172 61.0211 75.0986 60.9589 75.5626 61.6736ZM79.8346 66.2585C79.5981 65.6576 78.9137 64.9909 78.6346 64.6407C78.3519 64.2976 77.911 64.086 77.5359 64.1447C77.159 64.1998 76.9261 63.9811 76.7395 63.5029C76.551 63.03 76.2239 63.0887 75.9412 63.0691C75.6621 63.0478 74.535 63.2807 73.8772 63.478C73.223 63.6789 72.9226 63.926 72.4941 64.2905C71.815 64.8593 72.1919 64.4771 72.4941 65.0442C72.7928 65.6096 72.1617 66.9393 72.1155 67.7873C72.0675 68.6353 73.3172 67.8425 73.7848 67.8567C74.2541 67.878 74.1155 67.5207 74.4888 67.2985C74.8657 67.0762 75.1092 67.0691 75.5181 67.6042C75.9323 68.1465 76.4728 68.6905 76.4728 69.174C76.4728 69.654 77.9555 70.8576 78.519 70.6887C79.0808 70.5145 79.4097 69.9633 79.9252 69.5598C80.4426 69.1598 80.2559 68.0949 80.3946 67.4833C80.5386 66.8718 80.0657 66.854 79.8346 66.2585Z" fill="#5C913B"/>
</svg>
